PathFileType	4	(X/Y/Z)	C:/Users/beibeiliu/ov580/test_trc/User3\sequence.21_training_dense_left.trc
DataRate	CameraRate	NumFrames	NumMarkers	Units	OrigDataRate	OrigDataStartFrame	OrigNumFrames
120	120	11	19	mm	120	1	92
Frame#	Time	ThumbCMC			ThumbMCP			ThumbIP			ThumbTip			IndexMCP			IndexPIP			IndexTip			MiddleMCP			MiddlePIP			MiddleTip			RingMCP			RingPIP			RingTip			PinkyMCP			PinkyPIP			PinkyTip			BackHand1			BackHand2			BackHand3	
		X0	Y0	Z0	X1	Y1	Z1	X2	Y2	Z2	X3	Y3	Z3	X4	Y4	Z4	X5	Y5	Z5	X6	Y6	Z6	X7	Y7	Z7	X8	Y8	Z8	X9	Y9	Z9	X10	Y10	Z10	X11	Y11	Z11	X12	Y12	Z12	X13	Y13	Z13	X14	Y14	Z14	X15	Y15	Z15	X16	Y16	Z16	X17	Y17	Z17	X18	Y18	Z18	
0	0	-109.505	8.57716	18.3263	-110.967	-8.02763	-15.0112	-133.941	-17.146	-38.9404	-167.436	-15.3073	-29.8697	-126.869	26.3824	-54.7428	-119.828	23.1011	-79.6969	-115.89	19.3644	-109.917	-150.52	30.4311	-58.8989	-151.866	30.4424	-86.5481	-153.598	27.151	-118.039	-170.509	25.2705	-50.747	-176.088	26.9369	-70.4228	-183.738	26.4145	-96.327	-193.74	14.3845	-30.4362	-202.691	13.2854	-45.5625	-212.706	16.0638	-67.4236	-166.659	35.2526	-2.17824	-165.748	38.0305	32.5177	-134.416	39.2687	10.4806	
1	0.00833333	-108.814	-9.25551	18.4462	-108.197	-26.6889	-13.1588	-132.903	-33.7732	-30.932	-163.141	-33.5875	-26.4335	-122.661	2.47711	-56.4411	-116.956	-3.28839	-83.1876	-113.643	-9.44322	-109.339	-144.974	7.12957	-62.4017	-145.508	4.76074	-84.6244	-148.334	-0.554336	-118.124	-169.912	3.72693	-49.2683	-169.936	2.73206	-71.7976	-178.26	2.26385	-101.907	-186.002	-5.17617	-28.0034	-200.318	-5.73629	-50.3904	-209.782	-2.94535	-65.2069	-164.132	16.9643	0.203492	-161.1	24.0362	27.6431	-129.386	20.476	7.54143	
2	0.0166667	-108.909	-21.5879	22.4236	-107.663	-39.7231	-7.50619	-135.153	-48.9062	-31.3625	-158.705	-47.7537	-23.959	-117.537	-14.253	-58.2057	-117.352	-20.3904	-78.9969	-110.141	-26.4458	-102.911	-147.068	-7.21074	-57.755	-145.89	-11.9375	-84.4262	-145.229	-18.148	-114.89	-164.469	-10.4455	-46.4847	-170.973	-12.9693	-74.7791	-179.026	-15.135	-99.2918	-187.786	-16.928	-27.2738	-199.663	-20.1486	-46.408	-208.404	-19.5599	-64.4478	-164.496	5.74862	0.343193	-160.103	11.6386	28.0001	-130.363	8.54718	11.159	
3	0.025	-108.298	-24.8355	17.6136	-111.364	-42.702	-8.27472	-135.332	-52.9911	-28.1172	-160.076	-54.0162	-23.8225	-122.74	-17.595	-57.0348	-115.256	-24.1177	-81.7529	-117.675	-30.4637	-101.532	-147.395	-11.3677	-55.7781	-149.237	-16.4261	-85.8171	-151.07	-23.4491	-114.693	-167.087	-14.0906	-48.113	-174.483	-16.6335	-72.4023	-178.956	-19.3003	-94.0036	-185.557	-22.1658	-25.9842	-197.952	-23.5906	-46.1123	-211.388	-22.3606	-62.5544	-165.367	0.425359	-1.64714	-166.137	8.17762	28.0474	-131.443	5.12707	8.49294	
4	0.0333333	-112.279	-23.302	21.7501	-111.567	-41.8995	-10.4232	-132.881	-54.5941	-30.0754	-162.667	-54.1894	-25.1372	-120.361	-14.6255	-54.0156	-116.943	-20.7647	-77.21	-112.492	-27.2527	-101.562	-146.12	-9.52868	-61.8773	-147.066	-16.0154	-88.4586	-148.635	-21.3275	-113.786	-172.306	-14.2431	-46.928	-174.027	-15.2703	-74.3848	-182.17	-19.5527	-98.6478	-192.14	-22.1512	-27.2207	-197.136	-24.2788	-45.6695	-212.426	-22.7902	-63.3131	-167.091	2.53631	-1.34154	-161.782	8.9302	25.8624	-133.275	5.09815	8.55152	
5	0.0416667	-111.29	-20.5855	17.0772	-109.503	-38.1692	-10.2963	-134.255	-48.7814	-31.1494	-161.507	-51.1553	-26.2343	-118.079	-11.492	-53.3453	-117.776	-18.794	-81.9063	-111.099	-24.3056	-102.275	-148.533	-7.63433	-61.2526	-145.789	-11.5834	-86.5072	-149.569	-18.4622	-115.623	-171.378	-11.8924	-47.9916	-175.411	-13.4078	-74.6506	-181.322	-16.7736	-96.4753	-188.421	-19.0358	-28.6506	-195.463	-22.1349	-45.0333	-211.036	-23.1109	-64.1226	-162.531	4.75742	1.00134	-163.41	10.0333	27.5448	-129.135	7.74679	9.1332	
6	0.05	-107.46	-18.7853	17.0316	-107.166	-37.2485	-12.3363	-129.411	-48.1096	-28.1671	-156.865	-48.4961	-26.0511	-120.378	-9.81425	-58.4818	-112.777	-15.491	-77.7506	-111.691	-21.3233	-102.759	-147.828	-5.23804	-61.8257	-143.754	-8.72205	-84.3361	-145.719	-14.177	-117.84	-164.84	-9.55662	-46.7442	-172.018	-11.1592	-72.2137	-176.439	-12.7175	-101.05	-189.153	-17.9033	-28.7556	-198.331	-20.3225	-49.9393	-209.693	-20.0106	-66.307	-160.177	4.2925	1.38504	-163.788	11.4819	29.3139	-131.244	11.1102	10.7333	
7	0.0583333	-106.687	-17.4941	21.8953	-105.394	-36.6507	-9.91569	-130.49	-47.0345	-33.6757	-158.497	-48.7809	-29.0252	-118.974	-6.77273	-56.9674	-111.715	-13.6638	-82.3513	-112.345	-17.7906	-103.064	-145.58	-3.12656	-61.3486	-144.503	-6.64232	-85.1006	-142.081	-12.5447	-120.528	-164.447	-7.65689	-48.1149	-173.966	-9.78203	-72.3515	-177.902	-11.6058	-96.9724	-189.124	-15.6101	-31.4693	-195.418	-18.9463	-47.1786	-209.321	-18.5366	-69.4235	-165.419	5.65357	1.95425	-163.772	11.9247	27.6473	-128.281	12.9675	9.84581	
8	0.0666667	-108.99	-17.6751	19.268	-109.095	-34.9984	-10.9263	-131.962	-44.3285	-29.0975	-161.277	-44.5853	-25.1352	-120.293	-4.99522	-54.304	-114.523	-10.9842	-83.0052	-108.548	-16.6308	-107.19	-146.054	-1.10841	-57.6133	-148.485	-4.92068	-88.2667	-145.753	-10.4249	-117.614	-167.891	-6.61921	-49.2732	-174.454	-8.35256	-71.7344	-176.257	-10.3347	-99.8764	-188.974	-15.9611	-27.0471	-195.699	-18.5063	-46.1266	-209.863	-17.5291	-66.9044	-164.14	5.57824	0.382799	-165.458	11.6947	31.1131	-131.339	11.2683	11.621	
9	0.075	-112.397	-18.2592	21.2776	-108.596	-37.6757	-12.5937	-130.593	-48.0422	-32.2578	-158.986	-47.0902	-24.2183	-120.89	-6.3114	-55.3387	-119	-10.7356	-78.257	-114.435	-15.25	-104.53	-146.359	-1.82303	-59.9632	-145.819	-4.96092	-86.0357	-146.577	-10.8611	-115.864	-166.485	-6.57807	-50.516	-176.758	-8.31081	-69.8047	-179.413	-11.5411	-97.714	-185.878	-16.6052	-27.5152	-199.159	-19.2574	-48.3246	-208.954	-18.9306	-66.9285	-168.425	5.36422	1.36596	-166.933	11.4522	27.0898	-131.851	11.0266	12.2849	
10	0.0833333	-111.748	-17.2984	18.5663	-110.408	-36.0134	-11.4058	-134.27	-46.759	-31.7407	-164.005	-46.8079	-26.1725	-124.797	-6.71785	-56.5944	-117.593	-10.9751	-79.2646	-116.233	-15.5564	-106.735	-149.478	-2.08078	-61.6741	-148.44	-5.84605	-84.9392	-152.23	-10.8726	-115.379	-174.128	-7.88516	-47.6656	-177.853	-8.29248	-70.2765	-180.817	-10.373	-99.1564	-187.666	-16.4218	-27.7249	-199.991	-17.9508	-47.8894	-210.417	-18.9333	-66.5116	-169.621	5.63486	1.69705	-167.559	10.5323	26.1996	-135.449	11.9946	10.9391	
